<svg width="25" height="24" viewBox="0 0 25 24" fill="none" xmlns="http://www.w3.org/2000/svg">
<path d="M8.16898 1.00586H3.58897C2.45736 1.00586 1.54004 1.94102 1.54004 3.0946V7.76357C1.54004 8.91715 2.45736 9.85231 3.58897 9.85231H8.16898C9.30059 9.85231 10.218 8.91715 10.218 7.76357V3.0946C10.218 1.94102 9.30059 1.00586 8.16898 1.00586Z" stroke="black" stroke-width="2" stroke-miterlimit="10"/>
<path d="M16.4967 1.00585H21.071C22.2017 1.00585 23.12 1.94198 23.12 3.0946V7.75771C23.12 8.91032 22.2017 9.84645 21.071 9.84645H16.4967C15.366 9.84645 14.4478 8.91032 14.4478 7.75771V3.08875C14.4478 1.93613 15.366 1 16.4967 1V1.00585Z" stroke="black" stroke-width="2" stroke-miterlimit="10"/>
<path d="M8.16898 13.6484H3.58897C2.45736 13.6484 1.54004 14.5836 1.54004 15.7372V20.4061C1.54004 21.5597 2.45736 22.4949 3.58897 22.4949H8.16898C9.30059 22.4949 10.218 21.5597 10.218 20.4061V15.7372C10.218 14.5836 9.30059 13.6484 8.16898 13.6484Z" stroke="black" stroke-width="2" stroke-miterlimit="10"/>
<path d="M16.4967 13.6494H21.071C22.2017 13.6494 23.12 14.5855 23.12 15.7381V20.4013C23.12 21.5539 22.2017 22.49 21.071 22.49H16.4967C15.366 22.49 14.4478 21.5539 14.4478 20.4013V15.7323C14.4478 14.5797 15.366 13.6436 16.4967 13.6436V13.6494Z" stroke="black" stroke-width="2" stroke-miterlimit="10"/>
</svg>
