<svg width="36" height="34" viewBox="0 0 36 34" fill="none" xmlns="http://www.w3.org/2000/svg">
<path d="M35.3169 0H0V33.4604H35.3169V0Z" fill="#CCCFE0"/>
<path d="M0 0V33.4876H2.88634V2.52993H35.3441V0H0Z" fill="#E9EAF4"/>
<path d="M17.6723 28.4276C11.2188 28.4276 5.99072 23.2045 5.99072 16.7572C5.99072 10.31 11.2461 5.08691 17.6723 5.08691C24.0985 5.08691 29.3538 10.3372 29.3538 16.7572C29.3538 23.1773 24.0985 28.4276 17.6723 28.4276ZM17.6723 8.0793C12.8799 8.0793 8.986 11.9694 8.986 16.7572C8.986 21.5451 12.8799 25.4352 17.6723 25.4352C22.4647 25.4352 26.3586 21.5451 26.3586 16.7572C26.3586 11.9694 22.4647 8.0793 17.6723 8.0793Z" fill="#001226"/>
</svg>
