<svg width="70" height="184" viewBox="0 0 70 184" fill="none" xmlns="http://www.w3.org/2000/svg">
<path d="M36.2804 0.112936L36.0751 0.112813L31.0958 78.5845C31.0277 79.7085 29.8192 80.3076 29.0322 79.5953L1.82793 55.2415L1.67975 55.4038L24.5987 86.1507C25.2147 86.9752 24.7476 88.2365 23.767 88.386L0.825572 92.1486L0.825675 92.3735L23.6668 95.4677C24.6361 95.6055 25.0698 96.8546 24.4429 97.6912L0.724042 129.118L0.86092 129.268L28.687 104.113C29.4849 103.389 30.6824 103.951 30.717 105.063L33.7197 183.413L33.9249 183.413L38.9043 104.941C38.9723 103.817 40.1808 103.218 40.9678 103.93L68.172 128.284L68.3202 128.122L45.4014 97.375C44.7853 96.5504 45.2524 95.2891 46.233 95.1396L69.1745 91.377L69.1744 91.1522L46.3333 88.0579C45.364 87.9201 44.9302 86.671 45.5571 85.8344L69.276 54.4072L69.1391 54.2572L41.3131 79.4129C40.5151 80.137 39.3176 79.5745 39.283 78.4629L36.2804 0.112936Z" fill="black"/>
</svg>
