<svg width="42" height="31" viewBox="0 0 42 31" fill="none" xmlns="http://www.w3.org/2000/svg">
<path d="M19.9744 17.4268C17.4587 19.5019 14.943 21.5819 12.4224 23.657C9.82231 25.8016 7.25699 27.9859 4.61229 30.0709C2.75156 31.5403 0.905715 30.8354 0.354941 28.517C0.206083 27.8866 0.211056 27.2114 0.211056 26.5561C0.201132 19.1345 0.201132 11.7129 0.211056 4.2913C0.211056 3.55659 0.230895 2.79209 0.419449 2.09213C0.940451 0.151094 2.50344 -0.553841 4.15577 0.627659C6.62184 2.38998 8.92916 4.38562 11.2811 6.3068C14.2434 8.72937 17.1858 11.1817 20.4607 13.8873C20.5252 12.7008 20.5946 11.9959 20.5996 11.286C20.6145 8.81377 20.5847 6.3366 20.6145 3.86438C20.6294 2.44956 20.7683 1.10921 22.2867 0.314922C23.8497 -0.499221 24.8421 0.548238 25.8096 1.33259C30.5383 5.16006 35.2323 9.02228 39.8668 12.959C41.7374 14.5475 41.6332 16.3942 39.7179 18.0027C35.0587 21.9145 30.3597 25.7767 25.6905 29.6687C24.7081 30.4878 23.6909 31.2226 22.3462 30.6368C20.9271 30.0162 20.6195 28.7404 20.6145 27.3554C20.6046 24.1534 20.6145 20.9465 20.6145 17.7445C20.4061 17.6403 20.1927 17.536 19.9843 17.4318L19.9744 17.4268Z" fill="#7741F0"/>
</svg>
