<svg width="45" height="45" viewBox="0 0 45 45" fill="none" xmlns="http://www.w3.org/2000/svg">
    <path d="M0.0177962 22.315C-0.498244 11.061 10.279 -0.480965 23.1602 0.0154632C33.615 0.41757 45.2358 9.93908 44.6801 23.1987C44.174 35.2718 35.312 44.7586 22.4011 44.9274C10.1451 45.0862 -0.121138 35.4357 0.0177962 22.315ZM31.5062 18.8252C31.3375 14.5112 27.5366 11.9298 23.6961 13.8013C22.4755 14.397 21.7461 14.3176 20.6098 13.7914C18.0395 12.6049 15.236 13.3942 13.812 15.4693C12.373 17.5642 12.6905 20.7066 14.6058 22.7122C16.4765 24.6681 18.3521 26.624 20.317 28.4807C22.014 30.0841 22.2919 30.1536 24.0037 28.5502C26.2763 26.4155 28.4199 24.132 30.4443 21.764C31.0794 21.0243 31.1638 19.818 31.5012 18.8252H31.5062Z" fill="#ECE6FA"/>
    <path d="M31.5065 18.8235C31.1691 19.8163 31.0847 21.0227 30.4496 21.7623C28.4201 24.1303 26.2816 26.4139 24.009 28.5485C22.2971 30.152 22.0193 30.0874 20.3223 28.479C18.3574 26.6224 16.4818 24.6664 14.6111 22.7105C12.6958 20.7049 12.3783 17.5625 13.8172 15.4676C15.2413 13.3925 18.0448 12.5983 20.615 13.7897C21.7513 14.3159 22.4807 14.3953 23.7014 13.7996C27.5419 11.9281 31.3427 14.5095 31.5114 18.8235H31.5065Z" fill="#8453F1"/>
</svg>