<svg width="1256" height="228" viewBox="0 0 1256 228" fill="none" xmlns="http://www.w3.org/2000/svg">
<path d="M96.1721 54.1178C92.4631 54.1178 90.9703 52.3826 90.9703 50.417C90.9703 42.2631 87.7537 38.5623 81.8132 38.5623C71.1633 38.5623 63.4837 50.9084 58.0357 67.7231H84.0294C90.7086 67.7231 87.7384 90.4498 77.8426 90.4498C78.5813 90.4498 66.454 89.2213 52.3414 88.2232C48.3861 106.512 45.9083 125.784 44.4155 138.867C41.6915 163.083 43.4305 191 19.1605 191C-5.10952 191 0.0923022 169.01 11.9734 123.311C15.4361 110.458 19.1605 98.1124 23.1157 86.5033H19.653C-3.37045 86.5033 7.52567 67.7231 13.4662 67.7231H30.0566C45.9083 28.4428 65.9615 2 93.2018 2C132.569 2 115.487 54.1332 96.1721 54.1332V54.1178Z" fill="url(#paint0_linear_653_92)" stroke="#231F20" stroke-width="3"/>
<path d="M78 153.8V115.4H97.1969V153.8H78ZM97.1969 96.2H116.394V115.4H97.1969V96.2ZM97.1969 173V153.8H135.591V173H97.1969ZM174 115.4H154.803V96.2H116.409V77H174V115.4ZM154.788 153.8H135.591V115.4H154.788V153.8ZM174 153.8V173H154.803V153.8H174Z" fill="url(#paint1_linear_653_92)"/>
<path d="M97.1969 115.4H78V153.8H97.1969M97.1969 115.4V153.8M97.1969 115.4H116.394V96.2H97.1969V115.4ZM97.1969 153.8V173H135.591V153.8M97.1969 153.8H135.591M135.591 153.8H154.788V115.4H135.591V153.8ZM174 115.4H154.803V96.2H116.409V77H174V115.4ZM174 153.8V173H154.803V153.8H174Z" stroke="#231F20" stroke-width="3"/>
<path d="M220.647 173L190 75H204.436L221.774 133.698C223.75 140.338 225.479 146.932 226.961 153.449C228.135 148.288 229.802 142.064 231.964 134.808L249.935 75H264L233.369 173H220.662H220.647Z" fill="url(#paint2_linear_653_92)" stroke="#231F20" stroke-width="3"/>
<path d="M321.714 171H296.857V158.625H284.429V146.25H272V96.75H284.429V84.375H296.857V133.875H309.286V146.25H321.714V158.625H334.143V171H321.714ZM334.143 158.625V109.125H321.714V96.75H309.286V84.375H296.857V72H334.143V84.375H346.571V96.75H359V146.25H346.571V158.625H334.143Z" fill="url(#paint3_linear_653_92)"/>
<path d="M296.857 84.375H284.429V96.75H272V146.25H284.429V158.625H296.857V171H321.714H334.143V158.625M296.857 84.375V133.875H309.286V146.25H321.714V158.625H334.143M296.857 84.375H309.286V96.75H321.714V109.125H334.143V158.625M296.857 84.375V72H334.143V84.375H346.571V96.75H359V146.25H346.571V158.625H334.143" stroke="#231F20" stroke-width="3"/>
<path d="M395.286 172.985H382.143V108.01H369V95.0115H382.143V82.0134H395.286V69.0154H408.429V95.0115H421.571V108.01H408.429V147.004H421.571V160.002H408.429V173H395.286V172.985ZM447.857 107.994H434.714V94.9962H421.571V81.9981H434.714V69H447.857V81.9981H461V107.994H447.857Z" fill="url(#paint4_linear_653_92)" stroke="#231F20" stroke-width="3"/>
<path d="M465.889 117.655C465.889 106.395 482.607 86.3649 494.252 86.3649C502.889 86.3649 503.644 91.1414 503.644 98.5803C503.644 103.545 500.452 111.547 497.074 119.566C491.815 132.736 489.363 138.828 489.363 143.229C489.363 145.328 490.304 146.095 492 146.095C494.622 146.095 503.089 139.987 515.674 121.868C519.237 121.868 523 124.922 523 128.743C523 140.755 493.126 173 475.837 173C464.748 173 461 168.036 461 157.543C461 149.149 463.067 141.334 467.755 129.495C466.259 125.877 465.874 121.476 465.874 117.671L465.889 117.655ZM501.223 36C508.734 36 517.186 44.3941 517.186 50.3139C517.186 54.8868 513.607 62.3257 504.601 73.5857C497.275 73.5857 492.015 68.0575 492.015 56.9854C492.015 41.5282 495.208 36 501.223 36Z" fill="url(#paint5_linear_653_92)" stroke="#231F20" stroke-width="3"/>
<path d="M590.254 55V89.0022H607V105.996H573.492V122.989H556.746V105.996H540V89.0022H573.508V55H590.254ZM540 156.991V122.989H556.746V156.991H540ZM556.746 174V157.007H573.492V174H556.746Z" fill="url(#paint6_linear_653_92)"/>
<path d="M556.746 122.989H573.492V105.996H607V89.0022H590.254V55H573.508V89.0022H540V105.996H556.746V122.989ZM556.746 122.989H540V156.991H556.746V122.989ZM556.746 174V157.007H573.492V174H556.746Z" stroke="#231F20" stroke-width="3"/>
<path d="M656.117 82C673.171 82 680.695 93.0437 680.695 105.186C680.695 118.611 669.146 133.707 651.168 133.707C646.034 133.707 641.084 133.151 636.859 130.769C635.58 130.026 633.745 130.583 633.745 132.981C633.745 139.415 642.364 142.725 652.818 142.725C665.292 142.725 680.155 136.291 688.404 123.592C691.334 119.168 698.673 124.69 696.653 128.186C680.51 158.177 661.067 174 639.789 174C588.244 174 603.478 82 656.117 82ZM657.767 109.609C657.767 105.557 655.023 102.061 649.333 102.061C642.179 102.061 637.785 107.397 637.785 112.362C637.785 116.415 640.529 119.911 646.404 119.911C653.558 119.911 657.783 114.203 657.783 109.609H657.767Z" fill="url(#paint7_linear_653_92)" stroke="#231F20" stroke-width="3"/>
<path d="M741.016 151.143C741.016 134.124 752.064 117.307 768.737 117.307C770.4 117.307 771.86 118.343 771.86 119.798C771.86 128.926 779.785 135.161 791.657 135.161C804.586 135.161 822.518 124.996 832.525 99.6695C836.068 90.3247 840.03 79.7423 843.573 70.8153C846.277 63.5437 850.876 60.8517 857.123 60.8517C866.291 60.8517 869.01 65.2146 866.711 72.053C859.625 94.0533 853.363 112.727 845.655 130.999C829.805 168.78 807.507 186 781.448 186C752.468 186 741 168.363 741 151.127L741.016 151.143ZM761.651 77.4525C761.651 47.9794 789.373 16.6343 848.996 16.6343C871.295 16.6343 882.98 18.2898 897.354 18.2898C911.727 18.2898 919.652 16 924.873 16C931.12 16 933 18.9086 933 24.5093C933 40.4913 921.33 55.2201 898.814 55.2201C879.017 55.2201 872.336 44.421 846.494 44.421C820.653 44.421 807.087 56.2566 807.087 69.5311C807.087 75.1318 810.428 79.2936 815.012 79.2936C818.757 88.4217 807.927 106.276 787.71 106.276C770.617 106.276 761.651 92.5835 761.651 77.4215V77.4525Z" fill="url(#paint8_linear_653_92)" stroke="#231F20" stroke-width="3"/>
<path d="M946.13 173H936.687V116.269H917.786V125.716H908.344V172.985H889.443V97.3426H880V87.8951H889.443V78.4475H898.885V69H908.328V116.269H917.771V106.821H927.214V97.3735H946.115V106.821H955.557V154.09H965V163.537H955.557V172.985H946.115L946.13 173Z" fill="url(#paint9_linear_653_92)" stroke="#231F20" stroke-width="3"/>
<path d="M977.151 126.15C977.151 116.622 991.454 99.6601 1001.41 99.6601C1008.8 99.6601 1009.44 103.695 1009.44 109.995C1009.44 114.201 1006.71 120.982 1003.83 127.764C999.323 138.906 997.24 144.089 997.24 147.798C997.24 149.583 998.042 150.219 999.492 150.219C1001.74 150.219 1008.97 145.051 1019.74 129.704C1022.79 129.704 1026 132.295 1026 135.523C1026 145.703 1000.46 173 985.683 173C976.209 173 973 168.795 973 159.918C973 152.811 974.759 146.184 978.786 136.175C977.505 133.102 977.181 129.393 977.181 126.15H977.151ZM1007.35 57C1013.76 57 1021 64.1074 1021 69.1199C1021 72.9995 1017.95 79.2999 1010.23 88.8282C1003.97 88.8282 999.461 84.1417 999.461 74.7686C999.461 61.6866 1002.19 57 1007.33 57H1007.35Z" fill="url(#paint10_linear_653_92)" stroke="#231F20" stroke-width="3"/>
<path d="M1046.6 110.597H1031V95H1046.6V110.597ZM1031 173V141.806H1046.6V173H1031ZM1046.6 141.791V110.597H1062.19V141.791H1046.6ZM1093.39 95V110.597H1062.19V95H1093.39ZM1093.39 157.403H1077.79V126.209H1093.39V157.403ZM1109 126.194H1093.4V110.597H1109V126.194ZM1109 157.403V173H1093.4V157.403H1109Z" fill="url(#paint11_linear_653_92)"/>
<path d="M1046.6 110.597H1031V95H1046.6V110.597ZM1046.6 110.597V141.791H1062.19V110.597M1046.6 110.597H1062.19M1062.19 110.597H1093.39V95H1062.19V110.597ZM1031 173V141.806H1046.6V173H1031ZM1093.39 157.403H1077.79V126.209H1093.39V157.403ZM1109 126.194H1093.4V110.597H1109V126.194ZM1109 157.403V173H1093.4V157.403H1109Z" stroke="#231F20" stroke-width="3"/>
<path d="M1197 149.504L1163.18 177.195C1153.68 193.562 1145.02 205.786 1137.2 213.869C1129.39 221.951 1123.58 226 1119.78 226C1117.74 226 1116.73 224.743 1116.73 222.246C1116.73 217.375 1119.21 211.154 1124.16 203.583C1126.12 200.605 1128.38 197.704 1130.94 194.865C1133.49 192.026 1135.89 189.575 1138.16 187.512C1140.44 185.448 1143.44 182.873 1147.18 179.801C1150.92 176.73 1153.46 174.605 1154.83 173.457C1161.62 159.665 1166.51 149.101 1169.51 141.794C1163.12 148.558 1157.56 154.112 1152.79 158.44C1148.04 162.768 1143.68 166.103 1139.71 168.43C1135.73 170.757 1132.15 171.936 1128.96 171.936C1125.5 171.936 1122.31 169.175 1119.38 163.668C1116.45 158.16 1115 152.498 1115 146.681C1115 143.981 1115.62 141.142 1116.88 138.164C1118.15 135.185 1120.11 132.005 1122.79 128.623C1125.47 125.241 1128.88 121.782 1133.02 118.229C1137.17 114.677 1142.03 111.217 1147.59 107.835C1158.12 101.273 1166.3 98 1172.14 98C1176.48 98 1178.67 99.5824 1178.67 102.763C1178.67 107.153 1173.95 111.45 1164.51 115.654C1158.73 118.152 1153.01 121.472 1147.34 125.598C1141.67 129.725 1137.09 134.099 1133.58 138.738C1130.08 143.376 1128.33 147.549 1128.33 151.273C1128.33 153.103 1128.77 154.561 1129.66 155.632C1130.55 156.718 1131.7 157.261 1133.12 157.261C1135.5 157.261 1138.21 156.175 1141.26 154.018C1144.32 151.847 1148.83 148.03 1154.82 142.554C1157.53 140.056 1161.16 136.008 1165.66 130.423C1170.18 124.838 1173.91 120.587 1176.86 117.64C1179.82 114.692 1182.48 113.234 1184.85 113.234C1186.2 113.234 1187.31 113.653 1188.17 114.506C1189.02 115.359 1189.44 116.585 1189.44 118.214C1189.44 121.332 1188.2 125.846 1185.72 131.757C1183.25 137.683 1178.77 147.363 1172.33 160.829L1196.98 142.973V149.566L1197 149.504Z" fill="url(#paint12_linear_653_92)" stroke="#231F20" stroke-width="3"/>
<path d="M1203 148.949L1213.37 146.985C1213.97 152.259 1215.65 156.172 1218.37 158.739C1221.08 161.307 1224.7 162.591 1229.2 162.591C1233.7 162.591 1237.18 161.477 1239.64 159.25C1242.11 157.023 1243.34 154.208 1243.34 150.789C1243.34 147.835 1242.28 145.546 1240.17 143.907C1238.71 142.778 1235.19 141.37 1229.6 139.684C1221.52 137.209 1216.11 135.09 1213.38 133.358C1210.65 131.626 1208.54 129.306 1207.04 126.398C1205.53 123.49 1204.78 120.196 1204.78 116.499C1204.78 110.127 1206.83 104.961 1210.92 100.97C1215 96.9952 1220.66 95 1227.91 95C1232.47 95 1236.48 95.8197 1239.94 97.4592C1243.4 99.0987 1246.04 101.295 1247.87 104.064C1249.7 106.832 1250.97 110.792 1251.67 115.942L1241.52 117.628C1240.57 109.477 1236.14 105.409 1228.19 105.409C1223.67 105.409 1220.32 106.306 1218.1 108.101C1215.9 109.895 1214.8 112.199 1214.8 114.999C1214.8 117.798 1215.85 119.917 1217.98 121.51C1219.25 122.438 1223.02 123.939 1229.28 125.98C1237.89 128.703 1243.46 130.868 1245.99 132.492C1248.52 134.116 1250.49 136.312 1251.89 139.112C1253.3 141.911 1254 145.221 1254 149.073C1254 156.203 1251.73 161.972 1247.2 166.38C1242.67 170.788 1236.48 173 1228.62 173C1213.91 173 1205.39 164.988 1203.03 148.98L1203 148.949Z" fill="url(#paint13_linear_653_92)" stroke="#231F20" stroke-width="3"/>
<defs>
<linearGradient id="paint0_linear_653_92" x1="59.7285" y1="190.985" x2="59.7285" y2="1.98465" gradientUnits="userSpaceOnUse">
<stop stop-color="#FFFEF9"/>
<stop offset="0.67" stop-color="#F9F397"/>
</linearGradient>
<linearGradient id="paint1_linear_653_92" x1="126" y1="173" x2="126" y2="77" gradientUnits="userSpaceOnUse">
<stop stop-color="#FFFEF9"/>
<stop offset="0.67" stop-color="#F9F397"/>
</linearGradient>
<linearGradient id="paint2_linear_653_92" x1="226.992" y1="173" x2="226.992" y2="75" gradientUnits="userSpaceOnUse">
<stop stop-color="#FFFEF9"/>
<stop offset="0.67" stop-color="#F9F397"/>
</linearGradient>
<linearGradient id="paint3_linear_653_92" x1="315.5" y1="171" x2="315.5" y2="72.0154" gradientUnits="userSpaceOnUse">
<stop stop-color="#FFFEF9"/>
<stop offset="0.67" stop-color="#F9F397"/>
</linearGradient>
<linearGradient id="paint4_linear_653_92" x1="415" y1="172.985" x2="415" y2="69" gradientUnits="userSpaceOnUse">
<stop stop-color="#FFFEF9"/>
<stop offset="0.67" stop-color="#F9F397"/>
</linearGradient>
<linearGradient id="paint5_linear_653_92" x1="492.015" y1="172.984" x2="492.015" y2="36" gradientUnits="userSpaceOnUse">
<stop stop-color="#FFFEF9"/>
<stop offset="0.67" stop-color="#F9F397"/>
</linearGradient>
<linearGradient id="paint6_linear_653_92" x1="573.492" y1="174" x2="573.492" y2="55" gradientUnits="userSpaceOnUse">
<stop stop-color="#FFFEF9"/>
<stop offset="0.67" stop-color="#F9F397"/>
</linearGradient>
<linearGradient id="paint7_linear_653_92" x1="652.509" y1="174" x2="652.509" y2="82" gradientUnits="userSpaceOnUse">
<stop stop-color="#FFFEF9"/>
<stop offset="0.67" stop-color="#F9F397"/>
</linearGradient>
<linearGradient id="paint8_linear_653_92" x1="837.016" y1="186.015" x2="837.016" y2="16.0155" gradientUnits="userSpaceOnUse">
<stop stop-color="#FFFEF9"/>
<stop offset="0.67" stop-color="#F9F397"/>
</linearGradient>
<linearGradient id="paint9_linear_653_92" x1="922.515" y1="173" x2="922.515" y2="69" gradientUnits="userSpaceOnUse">
<stop stop-color="#FFFEF9"/>
<stop offset="0.67" stop-color="#F9F397"/>
</linearGradient>
<linearGradient id="paint10_linear_653_92" x1="999.477" y1="173.016" x2="999.477" y2="57" gradientUnits="userSpaceOnUse">
<stop stop-color="#FFFEF9"/>
<stop offset="0.67" stop-color="#F9F397"/>
</linearGradient>
<linearGradient id="paint11_linear_653_92" x1="1069.99" y1="173" x2="1069.99" y2="95" gradientUnits="userSpaceOnUse">
<stop stop-color="#FFFEF9"/>
<stop offset="0.67" stop-color="#F9F397"/>
</linearGradient>
<linearGradient id="paint12_linear_653_92" x1="1156" y1="226" x2="1156" y2="97.969" gradientUnits="userSpaceOnUse">
<stop stop-color="#FFFEF9"/>
<stop offset="0.67" stop-color="#F9F397"/>
</linearGradient>
<linearGradient id="paint13_linear_653_92" x1="1228.48" y1="172.985" x2="1228.48" y2="95" gradientUnits="userSpaceOnUse">
<stop stop-color="#FFFEF9"/>
<stop offset="0.67" stop-color="#F9F397"/>
</linearGradient>
</defs>
</svg>
