<svg width="507" height="122" viewBox="0 0 507 122" fill="none" xmlns="http://www.w3.org/2000/svg">
<path d="M5.29274 51.9928C5.29274 39.0472 24.6337 16 38.097 16C45.4826 16 47.4367 18.6264 47.4367 25.2158C47.4367 30.7017 44.6056 46.0562 38.7433 56.8105C54.6069 29.1632 69.5934 19.2791 79.1485 19.2791C88.7036 19.2791 94.1351 25.8685 94.1351 34.416C94.1351 40.3371 92.3964 48.0143 87.8266 58.5511C83.9184 68.202 76.9636 83.7896 76.9636 89.2756C76.9636 91.6844 78.0561 92.5702 80.0102 92.5702C84.3492 92.5702 98.0433 81.3808 111.522 61.8458C115.646 61.8458 120 64.7053 120 69.0879C120 82.9193 83.2875 120 63.2849 120C50.4679 120 46.1134 114.296 46.1134 102.221C46.1134 87.737 57.1918 65.5756 57.1918 60.7424C57.1918 58.9863 56.3302 58.116 54.5915 58.116C52.6374 58.116 45.4672 61.4106 36.9892 73.2528C33.9426 90.1458 32.6502 100.03 31.9885 114.949C29.819 117.14 28.2957 117.809 23.2951 117.809C11.1243 117.809 2.21541 106.184 2 93.0054C2 84.6599 3.73869 75.6617 7.43148 65.5756C5.69279 61.4106 5.26198 56.3598 5.26198 51.9617L5.29274 51.9928Z" fill="url(#paint0_linear_653_91)" stroke="#231F20" stroke-width="3"/>
<path d="M238.705 84.8869C236.267 94.8318 232.168 102.333 226.407 107.406C220.647 112.464 213.613 115 205.337 115C199.483 115 194.266 113.639 189.701 110.932C185.121 108.226 180.944 103.864 177.186 97.8632C167.684 109.277 157.203 114.985 145.728 114.985C138.027 114.985 131.816 112.541 127.08 107.638C122.36 102.735 120 96.4558 120 88.7844C120 83.5877 121.18 78.8859 123.571 74.6481C125.947 70.4103 129.146 67.1624 133.183 64.9198C137.22 62.6771 143.974 60.7902 153.492 59.29C160.619 58.13 166.628 56.7226 171.488 55.0522L171.597 51.4949C171.597 44.0247 170.308 38.8743 167.73 36.044C165.153 33.2136 160.852 31.7907 154.827 31.7907C148.803 31.7907 143.896 33.0126 140.977 35.4408C138.058 37.869 135.931 42.5708 134.596 49.5307L122.174 47.7211C124.146 37.4514 127.779 30.1049 133.074 25.666C138.369 21.2272 145.744 19 155.184 19C162.187 19 167.746 20.0362 171.861 22.0933C175.975 24.1503 179.034 27.2127 181.068 31.2803C187.326 23.0831 195.4 19 205.306 19C211.796 19 217.464 20.7013 222.324 24.1039C227.184 27.5065 231.174 32.9352 234.311 40.3746C237.432 47.8139 239 56.2895 239 65.8014L238.907 70.9981H184.189C184.251 79.5355 185.105 85.6757 186.751 89.4186C188.397 93.1614 191.021 96.2392 194.577 98.6365C198.148 101.034 201.983 102.225 206.114 102.225C210.756 102.225 214.809 100.554 218.256 97.2291C221.703 93.9038 224.078 89.1092 225.352 82.8453L238.721 84.9178L238.705 84.8869ZM171.659 66.8067C167.886 68.8328 160.262 70.9362 148.772 73.117C143.555 74.0913 139.921 75.5452 137.887 77.4476C134.984 80.216 133.54 83.7888 133.54 88.1812C133.54 92.5737 134.859 96.0072 137.484 98.6984C140.123 101.374 143.694 102.72 148.213 102.72C153.709 102.72 158.523 101.08 162.622 97.7859C166.737 94.4915 169.392 90.2847 170.618 85.1498C171.333 82.2731 171.69 76.1484 171.659 66.8067ZM184.174 58.1609H225.864C225.165 48.8966 222.96 42.1841 219.249 38.0237C215.538 33.8632 210.927 31.7753 205.415 31.7753C199.499 31.7753 194.592 34.0334 190.711 38.5495C186.829 43.0657 184.655 49.608 184.189 58.1609H184.174Z" fill="url(#paint1_linear_653_91)" stroke="#231F20" stroke-width="3"/>
<path d="M246 117V17H265.997V77.0062H285.994V97.0031H265.997V117H246ZM306.006 56.9938V76.9907H286.009V56.9938H306.006ZM306.006 36.9969H326.003V56.9938H306.006V36.9969ZM326.003 17H346V36.9969H326.003V17Z" fill="url(#paint2_linear_653_91)"/>
<path d="M306.006 56.9938V76.9907H286.009V56.9938H306.006ZM306.006 56.9938H326.003V36.9969M306.006 56.9938V36.9969H326.003M326.003 36.9969H346V17H326.003V36.9969ZM246 117V17H265.997V77.0062H285.994V97.0031H265.997V117H246Z" stroke="#231F20" stroke-width="3"/>
<path d="M342.617 76.2071C342.617 67.9 355.018 53.1421 363.663 53.1421C370.07 53.1421 370.637 56.6537 370.637 62.1454C370.637 65.7961 368.262 71.7055 365.763 77.6148C361.854 87.3296 360.046 91.8312 360.046 95.0643C360.046 96.6113 360.735 97.1682 361.992 97.1682C363.939 97.1682 370.224 92.6666 379.559 79.301C382.21 79.301 385 81.544 385 84.3595C385 93.2235 362.835 117 350.006 117C341.774 117 339 113.349 339 105.599C339 99.4112 340.533 93.6411 344.012 84.9164C342.893 82.2402 342.617 79.007 342.617 76.1916V76.2071ZM368.829 16C374.408 16 380.677 22.1878 380.677 26.5502C380.677 29.9225 378.026 35.4142 371.343 43.7212C365.901 43.7212 362.008 39.6373 362.008 31.4849C362.008 20.0839 364.384 16.0155 368.844 16.0155L368.829 16Z" fill="url(#paint3_linear_653_91)" stroke="#231F20" stroke-width="3"/>
<path d="M446.323 114H410.831V102.125H399V78.375H410.831V90.25H422.662V102.125H446.323V90.25H434.492V78.375H422.662V66.5H410.831V54.625H399V30.875H410.831V19H458.169V30.875H470V42.75H446.338V30.875H422.677V42.75H434.508V54.625H446.338V66.5H458.169V78.375H470V102.125H458.169V114H446.338H446.323Z" fill="url(#paint4_linear_653_91)" stroke="#231F20" stroke-width="3"/>
<path d="M504 2C500.938 13.3589 495.2 27.8227 491.462 34.0482L484 35C486.938 27.027 490.4 12.9532 491.862 3.21702L504 2Z" fill="url(#paint5_linear_653_91)" stroke="#231F20" stroke-width="3"/>
<defs>
<linearGradient id="paint0_linear_653_91" x1="61.0385" y1="120.031" x2="61.0385" y2="16.0155" gradientUnits="userSpaceOnUse">
<stop stop-color="#FFFEF9"/>
<stop offset="0.67" stop-color="#F9F397"/>
</linearGradient>
<linearGradient id="paint1_linear_653_91" x1="179.484" y1="115" x2="179.484" y2="18.9691" gradientUnits="userSpaceOnUse">
<stop stop-color="#FFFEF9"/>
<stop offset="0.67" stop-color="#F9F397"/>
</linearGradient>
<linearGradient id="paint2_linear_653_91" x1="296.008" y1="117" x2="296.008" y2="17" gradientUnits="userSpaceOnUse">
<stop stop-color="#FFFEF9"/>
<stop offset="0.67" stop-color="#F9F397"/>
</linearGradient>
<linearGradient id="paint3_linear_653_91" x1="361.992" y1="117" x2="361.992" y2="0.515086" gradientUnits="userSpaceOnUse">
<stop stop-color="#FFFEF9"/>
<stop offset="0.67" stop-color="#F9F397"/>
</linearGradient>
<linearGradient id="paint4_linear_653_91" x1="434.492" y1="114" x2="434.492" y2="18.9844" gradientUnits="userSpaceOnUse">
<stop stop-color="#FFFEF9"/>
<stop offset="0.67" stop-color="#F9F397"/>
</linearGradient>
<linearGradient id="paint5_linear_653_91" x1="494" y1="34.9844" x2="494" y2="2" gradientUnits="userSpaceOnUse">
<stop stop-color="#FFFEF9"/>
<stop offset="0.67" stop-color="#F9F397"/>
</linearGradient>
</defs>
</svg>
