<svg width="220" height="98" viewBox="0 0 220 98" fill="none" xmlns="http://www.w3.org/2000/svg">
<g clip-path="url(#clip0_128_3132)">
<path d="M206.742 96.9327C219.5 96.9327 223.753 79.2368 212.132 73.9429C212.037 73.9003 211.941 73.8576 211.835 73.8149C206.179 71.3707 201.161 72.2459 195.281 74.0603C195.154 69.1828 194.835 64.1984 192.942 59.7051C191.05 55.2117 187.276 51.2414 182.502 50.3555C176.633 49.2775 170.573 52.853 165.704 56.3217C166.374 49.0641 166.512 40.4722 160.76 36.0322C155.519 31.9765 147.131 33.3853 140.975 35.8295C141.464 29.2335 140.794 22.4561 138.136 16.4045C135.479 10.3529 130.684 5.11241 124.528 2.74299C120.849 1.33415 116.831 0.981936 112.897 1.07799C104.424 1.29145 97.311 2.99914 90.9746 8.66654C85.3717 13.6829 82.4374 22.7443 82.7882 31.1226C76.4412 26.3411 68.5525 23.5128 60.6213 23.7369C52.6901 23.961 44.7908 27.3764 39.5707 33.3747C32.6708 41.3047 31.2355 53.9416 34.2762 63.7502C29.1517 61.1353 23.0598 60.9111 17.4463 62.1279C12.7365 63.1418 8.09051 65.2551 5.04987 69.012C2.00923 72.7796 0.914173 77.8279 1.06302 82.6735C1.10554 83.9329 1.22249 85.1817 1.3926 86.4197C2.22186 92.4287 7.33567 96.922 13.3851 96.922H206.742V96.9327Z" fill="#F9EFED" stroke="#3E3342" stroke-width="2" stroke-linecap="round" stroke-linejoin="round"/>
</g>
<defs>
<clipPath id="clip0_128_3132">
<rect width="220" height="98" fill="white"/>
</clipPath>
</defs>
</svg>
