<svg width="292" height="130" viewBox="0 0 292 130" fill="none" xmlns="http://www.w3.org/2000/svg">
<g clip-path="url(#clip0_128_3130)">
<path d="M274.404 128.584C291.337 128.584 296.981 105.11 281.558 98.0876C281.431 98.0309 281.304 97.9743 281.163 97.9177C273.656 94.6755 266.995 95.8364 259.192 98.2433C259.022 91.773 258.599 85.1612 256.087 79.2006C253.576 73.24 248.566 67.9732 242.23 66.7981C234.441 65.3681 226.398 70.1111 219.935 74.7125C220.824 65.085 221.007 53.6877 213.373 47.7979C206.416 42.4178 195.283 44.2867 187.113 47.5289C187.762 38.7791 186.873 29.7887 183.345 21.7611C179.817 13.7334 173.453 6.78176 165.283 3.63865C160.4 1.76978 155.066 1.30256 149.845 1.42998C138.599 1.71314 129.158 3.97845 120.748 11.4964C113.312 18.1507 109.417 30.171 109.883 41.2851C101.458 34.9423 90.9881 31.1904 80.4612 31.4877C69.9344 31.785 59.4498 36.3156 52.5213 44.2725C43.3632 54.792 41.4583 71.5552 45.494 84.5666C38.6925 81.0978 30.6069 80.8005 23.1562 82.4145C16.905 83.7595 10.7385 86.5629 6.70273 91.5465C2.66697 96.5443 1.21353 103.241 1.41109 109.669C1.46753 111.34 1.62276 112.996 1.84853 114.638C2.94919 122.609 9.73661 128.57 17.7658 128.57H274.404V128.584Z" fill="#F9EFED" stroke="#3E3342" stroke-width="2" stroke-linecap="round" stroke-linejoin="round"/>
</g>
<defs>
<clipPath id="clip0_128_3130">
<rect width="292" height="130" fill="white"/>
</clipPath>
</defs>
</svg>
