<svg width="93" height="93" viewBox="0 0 93 93" fill="none" xmlns="http://www.w3.org/2000/svg">
    <path d="M0.00738366 46.045C-0.31018 20.742 20.7582 -0.187378 46.2327 0.00126532C71.4046 0.189908 92.1057 20.2208 92.1256 46.2039C92.1454 71.7402 71.2656 92.2476 45.8407 92.2277C20.778 92.2079 -0.454076 71.3083 0.00738366 46.045ZM32.8702 45.1316C32.8702 49.5796 32.8156 54.0325 32.8851 58.4805C32.9447 62.2931 35.3264 63.5888 38.6062 61.6676C44.4216 58.2671 50.2221 54.8517 56.0226 51.4313C57.789 50.3888 59.5753 49.376 61.2922 48.2541C63.9567 46.5166 64.0212 44.2182 61.5006 42.292C60.8506 41.7956 60.1013 41.4382 59.3917 41.0162C56.2955 39.1645 53.2092 37.2979 50.103 35.4612C46.2228 33.1677 42.3624 30.8295 38.4276 28.6303C35.3512 26.9126 33.0588 28.2679 32.8802 31.7776C32.8554 32.2691 32.8752 32.7655 32.8752 33.262C32.8752 37.2185 32.8752 41.1701 32.8752 45.1266L32.8702 45.1316Z" fill="#753DF0"/>
    <path d="M32.871 45.1326C32.871 41.1761 32.871 37.2245 32.871 33.2679C32.871 32.7715 32.8512 32.28 32.876 31.7836C33.0546 28.2739 35.347 26.9137 38.4234 28.6363C42.3583 30.8354 46.2186 33.1687 50.0989 35.4671C53.205 37.3039 56.2914 39.1705 59.3876 41.0222C60.0922 41.4441 60.8464 41.8015 61.4964 42.298C64.022 44.2241 63.9526 46.5226 61.288 48.2601C59.5712 49.382 57.7849 50.3947 56.0184 51.4372C50.2179 54.8576 44.4125 58.273 38.6021 61.6736C35.3222 63.5948 32.9405 62.2941 32.881 58.4865C32.8115 54.0385 32.8661 49.5855 32.8661 45.1375L32.871 45.1326Z" fill="#FBFAFE"/>
</svg>