<svg width="45" height="45" viewBox="0 0 45 45" fill="none" xmlns="http://www.w3.org/2000/svg">
    <path d="M22.3313 0.0187457C33.5602 -0.507468 45.315 10.1161 44.7295 22.9091C44.139 35.7268 34.9495 44.7966 22.4256 44.9009C10.2838 45.0001 -0.190876 36.0346 0.00263946 21.3006C0.146535 10.692 10.3383 -0.403219 22.3313 0.0187457ZM28.0028 19.8659C30.4507 19.8759 31.668 18.6696 31.6548 16.247C31.6548 15.6711 31.6945 15.0804 31.5952 14.5194C31.4117 13.4819 30.717 12.9656 29.8735 13.7251C28.9704 14.5293 28.4395 14.2365 27.5513 13.7152C23.5619 11.3721 18.5404 12.1266 15.8461 15.3584C12.7399 19.0816 12.7746 23.3509 15.9354 27.2627C18.719 30.708 24.4153 31.3037 27.9631 28.5783C28.9952 27.784 28.8463 27.1883 27.978 26.4238C27.0203 25.5848 26.157 26.1458 25.244 26.4734C21.0015 27.9974 17.6671 26.2004 16.898 21.9956C16.1785 18.0639 20.4855 14.2911 24.2714 15.5272C25.8047 16.0286 26.1619 16.7633 25.3531 18.1334C24.6386 19.3447 25.0405 19.7915 26.2761 19.861C26.8516 19.8908 27.4272 19.8659 28.0078 19.8659H28.0028Z" fill="#EBE5FA"/>
    <path d="M28.0025 19.8672C27.4269 19.8672 26.8464 19.8921 26.2708 19.8623C25.0353 19.7928 24.6383 19.346 25.3479 18.1347C26.1567 16.7646 25.7945 16.0298 24.2662 15.5284C20.4753 14.2923 16.1733 18.0652 16.8928 21.9969C17.6619 26.2017 21.0012 27.9938 25.2387 26.4747C26.1517 26.147 27.0151 25.5861 27.9727 26.4251C28.846 27.1896 28.9899 27.7853 27.9579 28.5796C24.415 31.3049 18.7187 30.7092 15.9301 27.264C12.7694 23.3522 12.7347 19.0878 15.8408 15.3597C18.5352 12.1279 23.5566 11.3733 27.546 13.7165C28.4342 14.2377 28.9651 14.5306 29.8682 13.7264C30.7167 12.9669 31.4064 13.4832 31.59 14.5207C31.6892 15.0817 31.6446 15.6724 31.6495 16.2483C31.6661 18.6708 30.4487 19.8772 27.9975 19.8672H28.0025Z" fill="#7D49F1"/>
</svg>
