<svg width="43" height="32" viewBox="0 0 43 32" fill="none" xmlns="http://www.w3.org/2000/svg">
    <path d="M21.3897 18.7652C21.3897 21.4757 21.3897 24.1912 21.3897 26.9017C21.3897 27.6413 21.4344 28.3959 21.3352 29.1257C20.9581 31.8411 18.8691 32.7248 16.7355 30.9922C12.4583 27.5222 8.2456 23.9678 4.00811 20.4431C3.50199 20.0212 3.01077 19.5793 2.49969 19.1673C0.410716 17.4844 0.251929 15.737 2.24662 14.0342C6.86618 10.0876 11.5354 6.19562 16.2393 2.35822C18.2637 0.705116 19.1966 0.556199 20.318 1.84195C20.9829 2.60645 21.3004 3.88227 21.3451 4.94463C21.4741 8.06716 21.3897 11.1996 21.3897 14.8682C22.7245 13.8803 23.7616 13.1903 24.7192 12.401C28.5796 9.19901 32.4052 5.9623 36.2607 2.75041C36.7618 2.33341 37.3076 1.96109 37.8733 1.63841C39.5703 0.670375 41.0886 1.23134 41.7188 3.08302C41.9272 3.69859 42.0611 4.36876 42.0611 5.01412C42.086 12.6839 42.076 20.3587 42.076 28.0286C42.076 28.3562 42.076 28.6938 42.0215 29.0115C41.4955 31.7766 39.3172 32.6652 37.1588 30.9029C32.6285 27.2144 28.1578 23.4564 23.6524 19.7332C23.1115 19.2864 22.5161 18.8992 21.9455 18.4822C21.7619 18.5716 21.5833 18.6609 21.3997 18.7553L21.3897 18.7652Z" fill="#7841F0"/>
</svg>