<svg width="1728" height="1146" viewBox="0 0 1728 1146" fill="none" xmlns="http://www.w3.org/2000/svg">
<path fill-rule="evenodd" clip-rule="evenodd" d="M2071.7 1.91839C2085 5.61378 2092.79 19.394 2089.09 32.6974C2085.8 44.5538 2083.07 53.5486 2078.86 63.2233C2074.74 72.7088 2069.47 82.2239 2061.7 95.5117C1959.71 269.989 1808.14 417.519 1658.05 544.639C1485.64 690.669 1225.83 879.536 1025.96 989.68C940.066 1037.02 849.867 1078.41 756.218 1109.51C590.484 1164.55 388.944 1168.22 254.914 1020.11C224.86 986.905 202.161 948.086 187.068 906.559C184.631 907.775 182.218 908.978 179.829 910.169C166.827 916.65 154.551 922.77 143.202 928.525C47.7989 976.908 -50.4986 1020.54 -148.102 1063.86C-196.572 1085.38 -244.87 1106.82 -292.558 1128.72C-305.105 1134.49 -319.948 1128.99 -325.712 1116.44C-331.475 1103.9 -325.976 1089.05 -313.43 1083.29C-264.472 1060.8 -215.534 1039.08 -166.768 1017.44C-69.8994 974.444 26.287 931.755 120.588 883.932C132.425 877.929 145.056 871.63 158.303 865.024C163.141 862.611 168.062 860.157 173.056 857.662C156.906 781.952 164.439 701.337 197.013 631.445C217.91 586.607 253.072 542.964 294.319 507.635C335.54 472.329 384.339 444.045 433.518 431.553C478.44 420.144 534.25 429.019 571.885 457.155C591.236 471.621 606.763 492.005 611.952 518.153C617.146 544.321 611.304 572.805 594.482 602.201C548.79 682.047 465.84 747.804 381.163 800.878C331.093 832.261 279.122 859.969 232.103 883.913C245.007 921.608 265.063 956.814 291.987 986.565C406.269 1112.85 582.3 1114.58 740.461 1062.06C830.669 1032.1 918.054 992.055 1001.83 945.889C1197.99 837.788 1455.05 651.052 1625.74 506.485C1774.52 380.47 1920.88 237.335 2018.53 70.2787C2026.24 57.1035 2030.17 49.8115 2033.01 43.287C2035.77 36.9517 2037.75 30.7334 2040.92 19.3152C2044.61 6.01184 2058.39 -1.777 2071.7 1.91839ZM219.459 834.219C262.897 811.93 309.483 786.796 354.609 758.512C437.472 706.575 511.699 646.195 551.085 577.367C563.486 555.698 565.206 539.464 562.909 527.887C560.607 516.29 553.589 505.904 541.947 497.201C517.596 478.997 477.628 471.938 445.827 480.015C405.865 490.165 363.781 513.974 326.845 545.61C289.936 577.223 259.669 615.37 242.333 652.567C216.242 708.547 208.979 772.865 219.459 834.219Z" fill="#FDFF92" stroke="black" stroke-width="2" stroke-linecap="round"/>
</svg>
