<svg width="29" height="20" viewBox="0 0 29 20" fill="none" xmlns="http://www.w3.org/2000/svg">
<path d="M4.04194 1.23047H24.4569C25.8746 1.23047 27.0282 2.40648 27.0282 3.85164V15.6469C27.0282 17.0921 25.8746 18.2681 24.4569 18.2681H4.04194C2.62432 18.2681 1.4707 17.0921 1.4707 15.6469V3.85164C1.4707 2.40648 2.62432 1.23047 4.04194 1.23047Z" fill="#5E5E5E"/>
<path d="M10.3262 1.43457V18.2674M4.04194 1.23047H24.4569C25.8746 1.23047 27.0282 2.40648 27.0282 3.85164V15.6469C27.0282 17.0921 25.8746 18.2681 24.4569 18.2681H4.04194C2.62432 18.2681 1.4707 17.0921 1.4707 15.6469V3.85164C1.4707 2.40648 2.62432 1.23047 4.04194 1.23047Z" stroke="black" stroke-width="2" stroke-miterlimit="10"/>
</svg>
