<svg width="32" height="33" viewBox="0 0 32 33" fill="none" xmlns="http://www.w3.org/2000/svg">
<path d="M30.1781 32.9056H1.41416C0.622231 32.9056 0 32.263 0 31.4451V1.73974C0 0.921891 0.622231 0.279297 1.41416 0.279297H30.1781C30.9701 0.279297 31.5923 0.921891 31.5923 1.73974V31.4451C31.5923 32.263 30.9701 32.9056 30.1781 32.9056ZM2.85663 29.9847H28.7923V3.20018H2.85663V29.9847Z" fill="#213854"/>
<path d="M24.8045 27.3269C24.4368 27.3269 24.069 27.1809 23.8145 26.8888L4.94964 7.40646C4.38397 6.82229 4.38397 5.91684 4.94964 5.33266C5.5153 4.74849 6.39215 4.74849 6.95781 5.33266L25.8227 24.815C26.3883 25.3992 26.3883 26.3046 25.8227 26.8888C25.5398 27.1809 25.172 27.3269 24.8327 27.3269H24.8045Z" fill="#213854"/>
<path d="M5.93948 27.3269C5.5718 27.3269 5.20419 27.1809 4.94964 26.8888C4.38397 26.3046 4.38397 25.3992 4.94964 24.815L23.8145 5.33266C24.3802 4.74849 25.257 4.74849 25.8227 5.33266C26.3883 5.91684 26.3883 6.82229 25.8227 7.40646L6.95781 26.8888C6.67498 27.1809 6.30719 27.3269 5.96779 27.3269H5.93948Z" fill="#213854"/>
</svg>
