<svg width="32" height="33" viewBox="0 0 32 33" fill="none" xmlns="http://www.w3.org/2000/svg">
<path d="M30.4955 32.9056H1.73154C0.939614 32.9056 0.317383 32.263 0.317383 31.4451V1.73974C0.317383 0.921891 0.939614 0.279297 1.73154 0.279297H30.4955C31.2875 0.279297 31.9097 0.921891 31.9097 1.73974V31.4451C31.9097 32.263 31.2875 32.9056 30.4955 32.9056ZM3.17402 29.9847H29.1097V3.20018H3.17402V29.9847Z" fill="#213854"/>
<path d="M26.2532 27.3271H6.70957C5.91764 27.3271 5.29541 26.6845 5.29541 25.8667C5.29541 25.0488 5.91764 24.4062 6.70957 24.4062H26.2532C27.0451 24.4062 27.6674 25.0488 27.6674 25.8667C27.6674 26.6845 27.0451 27.3271 26.2532 27.3271Z" fill="#213854"/>
</svg>
