<svg width="33" height="33" viewBox="0 0 33 33" fill="none" xmlns="http://www.w3.org/2000/svg">
<path d="M30.985 32.9056H2.2208C1.42887 32.9056 0.806641 32.263 0.806641 31.4451V1.73974C0.806641 0.921891 1.42887 0.279297 2.2208 0.279297H30.985C31.7769 0.279297 32.3991 0.921891 32.3991 1.73974V31.4451C32.3991 32.263 31.7769 32.9056 30.985 32.9056ZM3.63496 29.9847H29.5708V3.20018H3.63496V29.9847Z" fill="#213854"/>
<path d="M26.375 27.3269H6.83115C6.03922 27.3269 5.41699 26.6843 5.41699 25.8665V6.38427C5.41699 5.56642 6.03922 4.92383 6.83115 4.92383H26.375C27.1669 4.92383 27.7891 5.56642 27.7891 6.38427V25.8665C27.7891 26.6843 27.1669 27.3269 26.375 27.3269ZM8.24531 24.4061H24.9608V7.84471H8.24531V24.4061Z" fill="#213854"/>
<path d="M26.3749 6.38477H6.83105V11.029H26.3749V6.38477Z" fill="#213854"/>
</svg>
